<svg width="22" height="15" viewBox="0 0 22 15" fill="none" xmlns="http://www.w3.org/2000/svg">
<path d="M21.0138 11.1537C20.9317 10.7437 20.2072 7.13329 20.0282 6.60617C19.5979 5.33883 18.564 3.89608 17.2626 2.74684C15.9096 1.55199 14.5077 0.866699 13.4164 0.866699H2.80087C2.25072 0.866699 1.80312 1.30556 1.80312 1.84495V3.38207H1.06808C0.798527 3.38207 0.579987 3.59634 0.579987 3.86063C0.579987 4.12492 0.798527 4.33919 1.06808 4.33919H1.80307V5.48073H0.488097C0.21854 5.48073 0 5.695 0 5.95929C0 6.22357 0.21854 6.43784 0.488097 6.43784H1.80307V11.2458C1.80307 11.7851 2.25068 12.224 2.80083 12.224H4.01776C4.19972 13.4094 5.24548 14.3213 6.50451 14.3213C7.76355 14.3213 8.80931 13.4094 8.99122 12.224H13.4683C13.6502 13.4094 14.696 14.3213 15.9551 14.3213C17.2141 14.3213 18.2598 13.4094 18.4418 12.224H20.0251C20.5753 12.224 21.0229 11.7851 21.0229 11.2458C21.0229 11.2149 21.0198 11.184 21.0138 11.1537ZM19.0461 6.75419L14.0165 6.75415V1.90937C15.7983 2.37856 18.268 4.70285 19.0461 6.75419ZM6.50455 13.3643C5.65611 13.3643 4.96582 12.6875 4.96582 11.8556C4.96582 11.0237 5.65611 10.347 6.50455 10.347C7.35299 10.347 8.04325 11.0237 8.04325 11.8556C8.04321 12.6875 7.35299 13.3643 6.50455 13.3643ZM15.9551 13.3643C15.1067 13.3642 14.4164 12.6875 14.4164 11.8556C14.4164 11.0237 15.1067 10.347 15.9551 10.347C16.8035 10.347 17.4938 11.0237 17.4938 11.8556C17.4938 12.6875 16.8035 13.3643 15.9551 13.3643ZM20.001 11.2669C19.5939 11.2669 18.397 11.2669 18.397 11.2669C18.127 10.1907 17.1349 9.38991 15.9551 9.38991C14.7753 9.38991 13.7831 10.1907 13.5132 11.2669H8.94644C8.67646 10.1907 7.68435 9.38991 6.50455 9.38991C5.32476 9.38991 4.33261 10.1907 4.06262 11.2669H2.80087C2.78899 11.2669 2.77931 11.2574 2.77931 11.2458V6.43788H8.76101C9.03056 6.43788 9.2491 6.22362 9.2491 5.95933C9.2491 5.69504 9.03056 5.48077 8.76101 5.48077H2.77927V4.33923H5.53256C5.80212 4.33923 6.02066 4.12496 6.02066 3.86067C6.02066 3.59638 5.80212 3.38211 5.53256 3.38211H2.77927V1.84499C2.77927 1.83334 2.78895 1.82385 2.80083 1.82385H13.0403V7.2327C13.0403 7.49699 13.2588 7.71126 13.5284 7.71126L19.2988 7.7113C19.5069 8.64182 19.7924 10.1333 20.0354 11.2374C20.0403 11.2596 20.0262 11.2669 20.001 11.2669Z" fill="#333333"/>
</svg>
