<svg width="96" height="81" viewBox="0 0 96 81" fill="none" xmlns="http://www.w3.org/2000/svg">
<path d="M42.2257 59.9337H45.215L47.1016 67.6366H47.2359L51.6639 59.9337H54.6533L52.7499 71.3984H50.3988L51.6415 63.9363H51.5408L47.3535 71.3425H45.7468L44.0227 63.9083H43.9275L42.6735 71.3984H40.3224L42.2257 59.9337ZM57.1318 71.5608C56.5869 71.5608 56.1148 71.4656 55.7155 71.2753C55.3199 71.0812 55.0288 70.7939 54.8422 70.4132C54.6556 70.0325 54.6089 69.5604 54.7022 68.9969C54.7843 68.5192 54.9392 68.1199 55.1669 67.7989C55.3983 67.4742 55.68 67.213 56.0122 67.0152C56.3443 66.8174 56.7119 66.6663 57.115 66.5618C57.5218 66.4573 57.9416 66.3864 58.3745 66.349C58.8746 66.2968 59.2814 66.2464 59.5949 66.1979C59.9121 66.1494 60.1491 66.0803 60.3058 65.9908C60.4626 65.8975 60.5577 65.7594 60.5913 65.5765V65.5429C60.6473 65.1921 60.582 64.9197 60.3954 64.7256C60.2125 64.5278 59.9196 64.4289 59.5165 64.4289C59.0911 64.4289 58.7291 64.5222 58.4305 64.7088C58.1357 64.8954 57.9248 65.1324 57.7979 65.4198L55.6259 65.2406C55.82 64.7182 56.1129 64.2666 56.5048 63.8859C56.9004 63.5015 57.3762 63.2067 57.9323 63.0014C58.4884 62.7924 59.1116 62.688 59.802 62.688C60.2797 62.688 60.7257 62.7439 61.1399 62.8559C61.5579 62.9679 61.9181 63.1414 62.2204 63.3765C62.5264 63.6116 62.7466 63.9139 62.8809 64.2834C63.019 64.6491 63.047 65.0876 62.9649 65.5989L61.9964 71.3984H59.7348L59.9364 70.2061H59.8692C59.6863 70.4748 59.4624 70.7117 59.1974 70.917C58.9325 71.1185 58.6283 71.2771 58.285 71.3928C57.9416 71.5048 57.5572 71.5608 57.1318 71.5608ZM58.089 69.915C58.4361 69.915 58.7552 69.8459 59.0463 69.7078C59.3411 69.566 59.5837 69.3757 59.774 69.1368C59.9681 68.898 60.0912 68.6274 60.1435 68.3251L60.289 67.4127C60.2144 67.4612 60.1062 67.5041 59.9644 67.5414C59.8263 67.5787 59.6751 67.6142 59.5109 67.6478C59.3504 67.6776 59.1881 67.7056 59.0239 67.7317C58.8597 67.7541 58.7123 67.7765 58.5817 67.7989C58.2943 67.84 58.0368 67.9053 57.8091 67.9949C57.5815 68.0844 57.3967 68.2057 57.2549 68.3587C57.1131 68.508 57.0254 68.6946 56.9918 68.9185C56.9396 69.2432 57.0161 69.4914 57.2213 69.6631C57.4303 69.831 57.7196 69.915 58.089 69.915ZM63.8466 71.3984L65.2797 62.7999H67.5916L67.3397 64.3002H67.4293C67.6756 63.7665 68.0059 63.3634 68.4201 63.091C68.8381 62.8148 69.2878 62.6768 69.7693 62.6768C69.8887 62.6768 70.0137 62.6842 70.1443 62.6991C70.2787 62.7103 70.3981 62.729 70.5026 62.7551L70.1443 64.8768C70.0398 64.8394 69.8905 64.8096 69.6965 64.7872C69.5062 64.7611 69.3251 64.748 69.1535 64.748C68.8064 64.748 68.4836 64.8245 68.185 64.9775C67.8865 65.1268 67.6346 65.3358 67.4293 65.6045C67.2278 65.8732 67.0953 66.183 67.0318 66.5338L66.2313 71.3984H63.8466ZM72.8664 68.9241L73.3422 66.0635H73.6893L76.9977 62.7999H79.7351L75.3239 67.1216H74.7529L72.8664 68.9241ZM70.2969 71.3984L72.2002 59.9337H74.5849L72.6816 71.3984H70.2969ZM75.6709 71.3984L73.7676 67.6534L75.6318 65.9684L78.4643 71.3984H75.6709ZM83.0141 71.5664C82.1334 71.5664 81.4038 71.3872 80.8253 71.029C80.2468 70.667 79.8401 70.1557 79.6049 69.4951C79.3736 68.8308 79.3344 68.0452 79.4874 67.1384C79.6367 66.2539 79.9371 65.4776 80.3887 64.8096C80.844 64.1416 81.415 63.6209 82.1017 63.2477C82.7883 62.8746 83.5534 62.688 84.3968 62.688C84.9641 62.688 85.4772 62.7794 85.9363 62.9623C86.399 63.1414 86.7834 63.4138 87.0895 63.7796C87.3955 64.1416 87.6045 64.595 87.7164 65.1399C87.8321 65.6847 87.8303 66.3229 87.7108 67.0544L87.6045 67.7094H80.3495L80.579 66.2315H85.5948C85.6508 65.8881 85.6284 65.584 85.5276 65.319C85.4269 65.054 85.2589 64.8469 85.0238 64.6976C84.7887 64.5446 84.4995 64.4681 84.1561 64.4681C83.8053 64.4681 83.4769 64.5539 83.1709 64.7256C82.8648 64.8973 82.6073 65.1231 82.3983 65.403C82.1931 65.6791 82.0606 65.9796 82.0009 66.3043L81.7378 67.7709C81.6631 68.2225 81.6781 68.5976 81.7826 68.8961C81.8908 69.1947 82.0774 69.4186 82.3424 69.5679C82.6073 69.7134 82.9432 69.7862 83.35 69.7862C83.615 69.7862 83.8632 69.7489 84.0945 69.6743C84.3297 69.5996 84.5386 69.4895 84.7215 69.344C84.9044 69.1947 85.0537 69.01 85.1694 68.7898L87.347 68.9353C87.1454 69.4653 86.8394 69.928 86.4289 70.3236C86.0184 70.7155 85.5239 71.0215 84.9454 71.2417C84.3707 71.4581 83.7269 71.5664 83.0141 71.5664ZM94.5614 62.7999L94.2647 64.5913H89.081L89.3832 62.7999H94.5614ZM90.8947 60.7398H93.2795L91.9471 68.7562C91.9098 68.9764 91.9154 69.148 91.9639 69.2712C92.0124 69.3906 92.0927 69.4746 92.2046 69.5231C92.3203 69.5716 92.4584 69.5959 92.6189 69.5959C92.7309 69.5959 92.8447 69.5866 92.9604 69.5679C93.0761 69.5455 93.1638 69.5287 93.2235 69.5175L93.313 71.2921C93.1787 71.3331 92.9977 71.3779 92.77 71.4264C92.5461 71.4749 92.2811 71.5048 91.9751 71.516C91.3929 71.5384 90.9003 71.4619 90.4973 71.2865C90.0942 71.1073 89.805 70.833 89.6296 70.4636C89.4542 70.0941 89.4168 69.6295 89.5176 69.0697L90.8947 60.7398Z" fill="white"/>
<path d="M0.996444 71.3984V59.9337H8.72168V61.9322H3.42038V64.664H8.32423V66.6625H3.42038V69.4H8.74408V71.3984H0.996444ZM13.0559 71.5608C12.5073 71.5608 12.0184 71.4656 11.5893 71.2753C11.1601 71.0812 10.8205 70.7957 10.5704 70.4188C10.3241 70.0381 10.201 69.5642 10.201 68.9969C10.201 68.5192 10.2887 68.118 10.4641 67.7933C10.6395 67.4686 10.8783 67.2074 11.1806 67.0096C11.4829 66.8118 11.8262 66.6625 12.2106 66.5618C12.5988 66.461 13.0056 66.3901 13.431 66.349C13.9311 66.2968 14.3341 66.2483 14.6402 66.2035C14.9462 66.155 15.1682 66.0841 15.3063 65.9908C15.4444 65.8975 15.5135 65.7594 15.5135 65.5765V65.5429C15.5135 65.1884 15.4015 64.9141 15.1776 64.72C14.9574 64.526 14.6439 64.4289 14.2371 64.4289C13.8079 64.4289 13.4665 64.5241 13.2127 64.7144C12.9589 64.901 12.791 65.1361 12.7089 65.4198L10.5032 65.2406C10.6152 64.7182 10.8354 64.2666 11.1638 63.8859C11.4922 63.5015 11.9158 63.2067 12.4346 63.0014C12.957 62.7924 13.5616 62.688 14.2483 62.688C14.726 62.688 15.1832 62.7439 15.6198 62.8559C16.0602 62.9679 16.4502 63.1414 16.7898 63.3765C17.1331 63.6116 17.4037 63.9139 17.6015 64.2834C17.7993 64.6491 17.8982 65.0876 17.8982 65.5989V71.3984H15.6366V70.2061H15.5694C15.4314 70.4748 15.2466 70.7117 15.0152 70.917C14.7838 71.1185 14.5058 71.2771 14.1811 71.3928C13.8564 71.5048 13.4814 71.5608 13.0559 71.5608ZM13.7389 69.915C14.0897 69.915 14.3995 69.8459 14.6682 69.7078C14.9369 69.566 15.1477 69.3757 15.3007 69.1368C15.4537 68.898 15.5303 68.6274 15.5303 68.3251V67.4127C15.4556 67.4612 15.353 67.506 15.2224 67.547C15.0955 67.5843 14.9518 67.6198 14.7913 67.6534C14.6308 67.6832 14.4704 67.7112 14.3099 67.7373C14.1494 67.7597 14.0039 67.7803 13.8732 67.7989C13.5933 67.84 13.3489 67.9053 13.1399 67.9949C12.9309 68.0844 12.7686 68.2057 12.6529 68.3587C12.5372 68.508 12.4793 68.6946 12.4793 68.9185C12.4793 69.2432 12.5969 69.4914 12.832 69.6631C13.0709 69.831 13.3732 69.915 13.7389 69.915ZM26.9026 65.2518L24.7194 65.3862C24.682 65.1996 24.6018 65.0316 24.4787 64.8824C24.3555 64.7294 24.1932 64.6081 23.9916 64.5185C23.7938 64.4252 23.5568 64.3785 23.2807 64.3785C22.9112 64.3785 22.5996 64.4569 22.3458 64.6137C22.092 64.7667 21.9652 64.9719 21.9652 65.2294C21.9652 65.4347 22.0473 65.6082 22.2115 65.7501C22.3757 65.8919 22.6574 66.0057 23.0568 66.0915L24.613 66.405C25.449 66.5767 26.0722 66.8529 26.4827 67.2335C26.8933 67.6142 27.0985 68.1143 27.0985 68.7338C27.0985 69.2973 26.9324 69.7918 26.6003 70.2173C26.2719 70.6427 25.8203 70.9749 25.2456 71.2137C24.6746 71.4488 24.0159 71.5664 23.2695 71.5664C22.1312 71.5664 21.2243 71.3294 20.5489 70.8554C19.8771 70.3777 19.4834 69.7284 19.3677 68.9073L21.7132 68.7842C21.7841 69.1312 21.9558 69.3962 22.2283 69.5791C22.5007 69.7582 22.8496 69.8478 23.2751 69.8478C23.6931 69.8478 24.0289 69.7676 24.2827 69.6071C24.5402 69.4429 24.6709 69.232 24.6746 68.9745C24.6709 68.758 24.5794 68.5808 24.4003 68.4427C24.2211 68.3009 23.945 68.1926 23.5718 68.118L22.0827 67.8213C21.243 67.6534 20.6179 67.3623 20.2074 66.948C19.8006 66.5338 19.5972 66.0057 19.5972 65.3638C19.5972 64.8115 19.7465 64.3356 20.045 63.9363C20.3473 63.537 20.7709 63.2291 21.3158 63.0126C21.8644 62.7962 22.5063 62.688 23.2415 62.688C24.3275 62.688 25.1821 62.9175 25.8054 63.3765C26.4324 63.8355 26.7981 64.4606 26.9026 65.2518ZM30.0725 74.6229C29.7702 74.6229 29.4865 74.5986 29.2216 74.5501C28.9603 74.5053 28.7439 74.4475 28.5722 74.3766L29.1096 72.5964C29.3895 72.6822 29.6414 72.7289 29.8653 72.7364C30.093 72.7438 30.2889 72.6916 30.4531 72.5796C30.6211 72.4677 30.7573 72.2773 30.8618 72.0086L31.0017 71.6447L27.9172 62.7999H30.4251L32.2053 69.1145H32.2949L34.0918 62.7999H36.6165L33.2745 72.3277C33.114 72.7905 32.8957 73.1935 32.6195 73.5369C32.3471 73.8839 32.0019 74.1508 31.5839 74.3374C31.1659 74.5277 30.6621 74.6229 30.0725 74.6229Z" fill="white"/>
<path d="M2.5169 79.1022V79.3779H0.395767V76.2207H2.47688V76.4964H0.707044V77.6348H2.25009V77.8971H0.707044V79.1022H2.5169ZM4.08384 76.2207H4.34621L5.65802 79.3779H5.32895L4.91984 78.3907H3.50131L3.09665 79.3779H2.76314L4.08384 76.2207ZM4.8487 78.1462L4.2128 76.5853L3.56801 78.1462H4.8487ZM7.91262 76.8121C7.86815 76.7617 7.81627 76.7173 7.75698 76.6787C7.69769 76.6372 7.63099 76.6016 7.55688 76.572C7.48276 76.5423 7.40272 76.5186 7.31675 76.5008C7.23374 76.4831 7.1448 76.4742 7.04994 76.4742C6.77424 76.4742 6.57116 76.5275 6.44072 76.6342C6.31325 76.738 6.24951 76.8803 6.24951 77.0611C6.24951 77.1856 6.27916 77.2835 6.33845 77.3546C6.4007 77.4258 6.49705 77.4836 6.62749 77.5281C6.75793 77.5725 6.92395 77.6185 7.12553 77.6659C7.35084 77.7133 7.54502 77.7697 7.70807 77.8349C7.87112 77.9001 7.99711 77.989 8.08605 78.1017C8.17498 78.2114 8.21945 78.3611 8.21945 78.5508C8.21945 78.6961 8.19129 78.8221 8.13496 78.9288C8.07863 79.0355 8.00007 79.1245 7.89928 79.1956C7.79849 79.2668 7.67842 79.3201 7.53909 79.3557C7.39975 79.3883 7.24708 79.4046 7.08107 79.4046C6.91802 79.4046 6.7609 79.3883 6.6097 79.3557C6.46148 79.3201 6.32066 79.2697 6.18726 79.2045C6.05385 79.1363 5.92934 79.0503 5.81372 78.9466L5.96936 78.6931C6.02569 78.7524 6.09239 78.8087 6.16947 78.8621C6.24951 78.9125 6.33697 78.9584 6.43183 79C6.52966 79.0415 6.63342 79.0741 6.74311 79.0978C6.85576 79.1185 6.97138 79.1289 7.08996 79.1289C7.34195 79.1289 7.53761 79.083 7.67694 78.9911C7.81924 78.8992 7.89039 78.7628 7.89039 78.5819C7.89039 78.4515 7.85481 78.3478 7.78366 78.2707C7.71251 78.1906 7.60579 78.1254 7.46349 78.075C7.32119 78.0246 7.14629 77.9757 6.93877 77.9283C6.71939 77.8779 6.53411 77.8215 6.38292 77.7593C6.23172 77.697 6.11759 77.6155 6.04051 77.5147C5.9664 77.411 5.92934 77.2746 5.92934 77.1056C5.92934 76.9099 5.97677 76.7454 6.07164 76.612C6.16947 76.4756 6.30287 76.3734 6.47185 76.3052C6.64083 76.234 6.83501 76.1985 7.05439 76.1985C7.19372 76.1985 7.32268 76.2133 7.44126 76.2429C7.5628 76.2696 7.67397 76.3096 7.77477 76.363C7.87853 76.4164 7.97488 76.4831 8.06381 76.5631L7.91262 76.8121ZM8.71225 76.2207L9.74391 77.9194L10.7845 76.2207H11.1224L9.89955 78.204V79.3779H9.58827V78.1951L8.36984 76.2207H8.71225ZM15.3608 79.3779V76.8077L14.2179 78.8043H14.0223L12.875 76.8077V79.3779H12.5637V76.2207H12.8839L14.1156 78.3818L15.3563 76.2207H15.672V79.3779H15.3608ZM17.4417 76.2207H17.704L19.0158 79.3779H18.6868L18.2777 78.3907H16.8591L16.4545 79.3779H16.121L17.4417 76.2207ZM18.2065 78.1462L17.5706 76.5853L16.9258 78.1462H18.2065ZM19.4684 79.3779V76.2207H20.8025C20.9388 76.2207 21.0634 76.2489 21.176 76.3052C21.2887 76.3615 21.3865 76.4386 21.4695 76.5364C21.5555 76.6313 21.6207 76.738 21.6652 76.8566C21.7126 76.9722 21.7363 77.0908 21.7363 77.2123C21.7363 77.3635 21.7067 77.5058 21.6474 77.6392C21.591 77.7726 21.5095 77.8853 21.4028 77.9772C21.299 78.0691 21.176 78.1299 21.0337 78.1595L21.8075 79.3779H21.4562L20.7135 78.2129H19.7797V79.3779H19.4684ZM19.7797 77.9372H20.8114C20.9359 77.9372 21.0441 77.9031 21.136 77.8349C21.2279 77.7667 21.299 77.6778 21.3494 77.5681C21.3998 77.4554 21.425 77.3368 21.425 77.2123C21.425 77.0849 21.3954 76.9678 21.3361 76.861C21.2798 76.7513 21.2027 76.6639 21.1049 76.5987C21.01 76.5305 20.9033 76.4964 20.7847 76.4964H19.7797V77.9372ZM22.3736 79.3779V76.2251H22.6849V78.0572L24.4236 76.2207H24.766L23.4764 77.6081L24.8327 79.3779H24.4814L23.2763 77.7949L22.6849 78.4085V79.3779H22.3736ZM27.3522 79.1022V79.3779H25.2311V76.2207H27.3122V76.4964H25.5423V77.6348H27.0854V77.8971H25.5423V79.1022H27.3522ZM30.182 76.4964H29.057V79.3779H28.7457V76.4964H27.6207V76.2207H30.182V76.4964ZM31.5514 78.3062V78.0261H32.8498V78.3062H31.5514ZM36.7886 79.1022V79.3779H34.6675V76.2207H36.7486V76.4964H34.9788V77.6348H36.5218V77.8971H34.9788V79.1022H36.7886ZM38.3556 76.2207H38.6179L39.9298 79.3779H39.6007L39.1916 78.3907H37.7731L37.3684 79.3779H37.0349L38.3556 76.2207ZM39.1204 78.1462L38.4845 76.5853L37.8398 78.1462H39.1204ZM42.1844 76.8121C42.1399 76.7617 42.088 76.7173 42.0287 76.6787C41.9694 76.6372 41.9027 76.6016 41.8286 76.572C41.7545 76.5423 41.6745 76.5186 41.5885 76.5008C41.5055 76.4831 41.4165 76.4742 41.3217 76.4742C41.046 76.4742 40.8429 76.5275 40.7125 76.6342C40.585 76.738 40.5213 76.8803 40.5213 77.0611C40.5213 77.1856 40.5509 77.2835 40.6102 77.3546C40.6724 77.4258 40.7688 77.4836 40.8992 77.5281C41.0297 77.5725 41.1957 77.6185 41.3973 77.6659C41.6226 77.7133 41.8168 77.7697 41.9798 77.8349C42.1429 77.9001 42.2688 77.989 42.3578 78.1017C42.4467 78.2114 42.4912 78.3611 42.4912 78.5508C42.4912 78.6961 42.463 78.8221 42.4067 78.9288C42.3504 79.0355 42.2718 79.1245 42.171 79.1956C42.0702 79.2668 41.9502 79.3201 41.8108 79.3557C41.6715 79.3883 41.5188 79.4046 41.3528 79.4046C41.1898 79.4046 41.0326 79.3883 40.8814 79.3557C40.7332 79.3201 40.5924 79.2697 40.459 79.2045C40.3256 79.1363 40.2011 79.0503 40.0855 78.9466L40.2411 78.6931C40.2974 78.7524 40.3641 78.8087 40.4412 78.8621C40.5213 78.9125 40.6087 78.9584 40.7036 79C40.8014 79.0415 40.9052 79.0741 41.0148 79.0978C41.1275 79.1185 41.2431 79.1289 41.3617 79.1289C41.6137 79.1289 41.8093 79.083 41.9487 78.9911C42.091 78.8992 42.1621 78.7628 42.1621 78.5819C42.1621 78.4515 42.1266 78.3478 42.0554 78.2707C41.9843 78.1906 41.8775 78.1254 41.7352 78.075C41.5929 78.0246 41.418 77.9757 41.2105 77.9283C40.9911 77.8779 40.8058 77.8215 40.6547 77.7593C40.5035 77.697 40.3893 77.6155 40.3123 77.5147C40.2381 77.411 40.2011 77.2746 40.2011 77.1056C40.2011 76.9099 40.2485 76.7454 40.3434 76.612C40.4412 76.4756 40.5746 76.3734 40.7436 76.3052C40.9126 76.234 41.1067 76.1985 41.3261 76.1985C41.4655 76.1985 41.5944 76.2133 41.713 76.2429C41.8345 76.2696 41.9457 76.3096 42.0465 76.363C42.1503 76.4164 42.2466 76.4831 42.3356 76.5631L42.1844 76.8121ZM42.984 76.2207L44.0156 77.9194L45.0562 76.2207H45.3942L44.1713 78.204V79.3779H43.86V78.1951L42.6416 76.2207H42.984ZM48.6809 76.8121C48.6364 76.7617 48.5845 76.7173 48.5252 76.6787C48.4659 76.6372 48.3992 76.6016 48.3251 76.572C48.251 76.5423 48.171 76.5186 48.085 76.5008C48.002 76.4831 47.9131 76.4742 47.8182 76.4742C47.5425 76.4742 47.3394 76.5275 47.209 76.6342C47.0815 76.738 47.0178 76.8803 47.0178 77.0611C47.0178 77.1856 47.0474 77.2835 47.1067 77.3546C47.169 77.4258 47.2653 77.4836 47.3957 77.5281C47.5262 77.5725 47.6922 77.6185 47.8938 77.6659C48.1191 77.7133 48.3133 77.7697 48.4763 77.8349C48.6394 77.9001 48.7654 77.989 48.8543 78.1017C48.9432 78.2114 48.9877 78.3611 48.9877 78.5508C48.9877 78.6961 48.9595 78.8221 48.9032 78.9288C48.8469 79.0355 48.7683 79.1245 48.6675 79.1956C48.5667 79.2668 48.4467 79.3201 48.3073 79.3557C48.168 79.3883 48.0153 79.4046 47.8493 79.4046C47.6863 79.4046 47.5292 79.3883 47.378 79.3557C47.2297 79.3201 47.0889 79.2697 46.9555 79.2045C46.8221 79.1363 46.6976 79.0503 46.582 78.9466L46.7376 78.6931C46.7939 78.7524 46.8606 78.8087 46.9377 78.8621C47.0178 78.9125 47.1052 78.9584 47.2001 79C47.2979 79.0415 47.4017 79.0741 47.5114 79.0978C47.624 79.1185 47.7396 79.1289 47.8582 79.1289C48.1102 79.1289 48.3059 79.083 48.4452 78.9911C48.5875 78.8992 48.6586 78.7628 48.6586 78.5819C48.6586 78.4515 48.6231 78.3478 48.5519 78.2707C48.4808 78.1906 48.374 78.1254 48.2317 78.075C48.0895 78.0246 47.9145 77.9757 47.707 77.9283C47.4876 77.8779 47.3024 77.8215 47.1512 77.7593C47 77.697 46.8858 77.6155 46.8088 77.5147C46.7347 77.411 46.6976 77.2746 46.6976 77.1056C46.6976 76.9099 46.745 76.7454 46.8399 76.612C46.9377 76.4756 47.0711 76.3734 47.2401 76.3052C47.4091 76.234 47.6033 76.1985 47.8226 76.1985C47.962 76.1985 48.0909 76.2133 48.2095 76.2429C48.3311 76.2696 48.4422 76.3096 48.543 76.363C48.6468 76.4164 48.7431 76.4831 48.8321 76.5631L48.6809 76.8121ZM52.0268 76.2207V79.3779H51.7199V77.9016H49.8478V79.3779H49.5365V76.2207H49.8478V77.6259H51.7199V76.2207H52.0268ZM54.0913 79.4002C53.869 79.4002 53.6674 79.3557 53.4866 79.2668C53.3057 79.1778 53.1501 79.0578 53.0196 78.9066C52.8892 78.7524 52.7884 78.5805 52.7173 78.3907C52.6461 78.198 52.6105 78.0009 52.6105 77.7993C52.6105 77.5888 52.6476 77.3887 52.7217 77.199C52.7958 77.0063 52.8996 76.8358 53.033 76.6876C53.1694 76.5364 53.328 76.4178 53.5088 76.3319C53.6896 76.2429 53.8853 76.1985 54.0958 76.1985C54.3181 76.1985 54.5197 76.2444 54.7005 76.3363C54.8814 76.4282 55.0355 76.5512 55.163 76.7054C55.2935 76.8596 55.3942 77.0315 55.4654 77.2212C55.5365 77.411 55.5721 77.6051 55.5721 77.8038C55.5721 78.0142 55.5351 78.2158 55.4609 78.4085C55.3868 78.5983 55.2831 78.7687 55.1497 78.9199C55.0163 79.0681 54.8591 79.1852 54.6783 79.2712C54.4975 79.3572 54.3018 79.4002 54.0913 79.4002ZM52.9218 77.7993C52.9218 77.9713 52.95 78.1373 53.0063 78.2974C53.0626 78.4545 53.1427 78.5953 53.2464 78.7198C53.3502 78.8413 53.4732 78.9392 53.6155 79.0133C53.7608 79.0844 53.9194 79.12 54.0913 79.12C54.2722 79.12 54.4337 79.083 54.576 79.0088C54.7213 78.9318 54.8443 78.831 54.9451 78.7065C55.0489 78.579 55.1274 78.4367 55.1808 78.2796C55.2342 78.1224 55.2608 77.9624 55.2608 77.7993C55.2608 77.6274 55.2327 77.4628 55.1764 77.3057C55.12 77.1486 55.0385 77.0078 54.9318 76.8833C54.828 76.7588 54.705 76.6609 54.5627 76.5898C54.4204 76.5186 54.2633 76.4831 54.0913 76.4831C53.9135 76.4831 53.7519 76.5201 53.6066 76.5942C53.4643 76.6683 53.3413 76.7691 53.2375 76.8966C53.1367 77.0211 53.0582 77.1619 53.0019 77.3191C52.9485 77.4762 52.9218 77.6363 52.9218 77.7993ZM56.159 79.3779V76.2207H57.4664C57.6027 76.2207 57.7272 76.2489 57.8399 76.3052C57.9555 76.3615 58.0548 76.4386 58.1378 76.5364C58.2208 76.6313 58.2861 76.738 58.3335 76.8566C58.3809 76.9722 58.4046 77.0908 58.4046 77.2123C58.4046 77.3843 58.3661 77.5473 58.289 77.7015C58.2149 77.8527 58.1097 77.9757 57.9733 78.0706C57.8369 78.1654 57.6768 78.2129 57.493 78.2129H56.4703V79.3779H56.159ZM56.4703 77.9372H57.4797C57.6042 77.9372 57.7124 77.9031 57.8043 77.8349C57.8962 77.7667 57.9674 77.6778 58.0178 77.5681C58.0682 77.4584 58.0934 77.3398 58.0934 77.2123C58.0934 77.0819 58.0637 76.9618 58.0044 76.8521C57.9451 76.7425 57.8666 76.6565 57.7687 76.5942C57.6739 76.529 57.5686 76.4964 57.453 76.4964H56.4703V77.9372ZM58.9252 79.3779V76.2207H60.2326C60.369 76.2207 60.4935 76.2489 60.6061 76.3052C60.7217 76.3615 60.8211 76.4386 60.9041 76.5364C60.9871 76.6313 61.0523 76.738 61.0997 76.8566C61.1472 76.9722 61.1709 77.0908 61.1709 77.2123C61.1709 77.3843 61.1323 77.5473 61.0553 77.7015C60.9811 77.8527 60.8759 77.9757 60.7395 78.0706C60.6032 78.1654 60.4431 78.2129 60.2593 78.2129H59.2365V79.3779H58.9252ZM59.2365 77.9372H60.2459C60.3704 77.9372 60.4786 77.9031 60.5705 77.8349C60.6624 77.7667 60.7336 77.6778 60.784 77.5681C60.8344 77.4584 60.8596 77.3398 60.8596 77.2123C60.8596 77.0819 60.8299 76.9618 60.7707 76.8521C60.7114 76.7425 60.6328 76.6565 60.535 76.5942C60.4401 76.529 60.3349 76.4964 60.2193 76.4964H59.2365V77.9372ZM61.6915 79.3779V76.2207H62.0027V79.3779H61.6915ZM63.1058 76.7943V79.3779H62.7945V76.2207H63.0524L65.1246 78.8532V76.2251H65.4359V79.3779H65.1468L63.1058 76.7943ZM67.4968 79.4002C67.2863 79.4002 67.0907 79.3557 66.9098 79.2668C66.729 79.1749 66.5719 79.0518 66.4385 78.8977C66.3051 78.7435 66.2013 78.5716 66.1272 78.3818C66.056 78.1921 66.0205 77.9965 66.0205 77.7949C66.0205 77.5814 66.056 77.3798 66.1272 77.1901C66.2013 76.9974 66.3036 76.8269 66.434 76.6787C66.5645 76.5305 66.7186 76.4134 66.8965 76.3274C67.0744 76.2414 67.2685 76.1985 67.479 76.1985C67.7903 76.1985 68.0438 76.2622 68.2394 76.3897C68.4351 76.5171 68.5833 76.6832 68.6841 76.8877L68.444 77.0478C68.3432 76.8521 68.2083 76.7084 68.0393 76.6165C67.8703 76.5246 67.6821 76.4786 67.4746 76.4786C67.2997 76.4786 67.1411 76.5157 66.9988 76.5898C66.8594 76.6639 66.7394 76.7632 66.6386 76.8877C66.5378 77.0122 66.4607 77.153 66.4073 77.3102C66.3569 77.4673 66.3317 77.6303 66.3317 77.7993C66.3317 77.9772 66.3614 78.1462 66.4207 78.3062C66.48 78.4634 66.5645 78.6042 66.6742 78.7287C66.7838 78.8502 66.9098 78.9466 67.0521 79.0177C67.1974 79.0859 67.353 79.12 67.519 79.12C67.7117 79.12 67.8941 79.0726 68.066 78.9777C68.2379 78.8799 68.4025 78.7302 68.5596 78.5286V78.8577C68.2602 79.2193 67.9059 79.4002 67.4968 79.4002ZM68.5107 78.0661H67.8081V77.826H68.773V79.3779H68.5107V78.0661ZM70.4393 78.3062V78.0261H71.7378V78.3062H70.4393ZM75.6765 79.1022V79.3779H73.5554V76.2207H75.6365V76.4964H73.8667V77.6348H75.4097V77.8971H73.8667V79.1022H75.6765ZM77.2435 76.2207H77.5059L78.8177 79.3779H78.4886L78.0795 78.3907H76.661L76.2563 79.3779H75.9228L77.2435 76.2207ZM78.0083 78.1462L77.3725 76.5853L76.7277 78.1462H78.0083ZM81.0723 76.8121C81.0278 76.7617 80.9759 76.7173 80.9166 76.6787C80.8573 76.6372 80.7906 76.6016 80.7165 76.572C80.6424 76.5423 80.5624 76.5186 80.4764 76.5008C80.3934 76.4831 80.3045 76.4742 80.2096 76.4742C79.9339 76.4742 79.7308 76.5275 79.6004 76.6342C79.4729 76.738 79.4092 76.8803 79.4092 77.0611C79.4092 77.1856 79.4388 77.2835 79.4981 77.3546C79.5604 77.4258 79.6567 77.4836 79.7871 77.5281C79.9176 77.5725 80.0836 77.6185 80.2852 77.6659C80.5105 77.7133 80.7047 77.7697 80.8677 77.8349C81.0308 77.9001 81.1568 77.989 81.2457 78.1017C81.3346 78.2114 81.3791 78.3611 81.3791 78.5508C81.3791 78.6961 81.3509 78.8221 81.2946 78.9288C81.2383 79.0355 81.1597 79.1245 81.0589 79.1956C80.9581 79.2668 80.8381 79.3201 80.6987 79.3557C80.5594 79.3883 80.4067 79.4046 80.2407 79.4046C80.0777 79.4046 79.9205 79.3883 79.7694 79.3557C79.6211 79.3201 79.4803 79.2697 79.3469 79.2045C79.2135 79.1363 79.089 79.0503 78.9734 78.9466L79.129 78.6931C79.1853 78.7524 79.252 78.8087 79.3291 78.8621C79.4092 78.9125 79.4966 78.9584 79.5915 79C79.6893 79.0415 79.7931 79.0741 79.9028 79.0978C80.0154 79.1185 80.131 79.1289 80.2496 79.1289C80.5016 79.1289 80.6973 79.083 80.8366 78.9911C80.9789 78.8992 81.05 78.7628 81.05 78.5819C81.05 78.4515 81.0145 78.3478 80.9433 78.2707C80.8722 78.1906 80.7654 78.1254 80.6231 78.075C80.4808 78.0246 80.3059 77.9757 80.0984 77.9283C79.879 77.8779 79.6938 77.8215 79.5426 77.7593C79.3914 77.697 79.2772 77.6155 79.2002 77.5147C79.126 77.411 79.089 77.2746 79.089 77.1056C79.089 76.9099 79.1364 76.7454 79.2313 76.612C79.3291 76.4756 79.4625 76.3734 79.6315 76.3052C79.8005 76.234 79.9947 76.1985 80.214 76.1985C80.3534 76.1985 80.4823 76.2133 80.6009 76.2429C80.7225 76.2696 80.8336 76.3096 80.9344 76.363C81.0382 76.4164 81.1345 76.4831 81.2235 76.5631L81.0723 76.8121ZM81.8719 76.2207L82.9036 77.9194L83.9441 76.2207H84.2821L83.0592 78.204V79.3779H82.7479V78.1951L81.5295 76.2207H81.8719ZM85.7234 79.3779V76.2207H86.0346V79.1022H87.8578V79.3779H85.7234ZM88.3159 79.3779V76.2207H88.6272V79.3779H88.3159ZM89.4189 79.3779V76.2207H91.4911V76.4964H89.7302V77.657H91.2154V77.9149H89.7302V79.3779H89.4189ZM94.1586 79.1022V79.3779H92.0375V76.2207H94.1186V76.4964H92.3488V77.6348H93.8918V77.8971H92.3488V79.1022H94.1586Z" fill="white"/>
<path d="M80.7091 7.6416C80.8966 8.14984 79.9286 11.9132 76.8852 16.6809C70.9255 26.0107 61.1541 32.3153 51.1769 34.9048C47.6722 35.9085 44.0213 36.3035 40.383 36.0726C37.5937 35.8185 34.145 35.1469 31.9124 33.12C31.9124 33.12 41.5446 46.5701 63.9252 40.2111C90.0993 32.7872 80.7091 7.6416 80.7091 7.6416Z" fill="white"/>
<path d="M48.4596 50.2712C50.2242 48.5533 50.2622 45.7302 48.5443 43.9655C46.8264 42.2008 44.0033 42.1629 42.2387 43.8808C40.474 45.5986 40.4361 48.4217 42.1539 50.1864C43.8718 51.9511 46.6949 51.989 48.4596 50.2712Z" fill="white"/>
<path d="M68.8753 50.2303C70.6168 48.4889 70.6167 45.6655 68.8753 43.924C67.1339 42.1826 64.3105 42.1826 62.5691 43.924C60.8277 45.6655 60.8277 48.4888 62.5691 50.2303C64.3105 51.9717 67.1339 51.9717 68.8753 50.2303Z" fill="white"/>
<path d="M12.551 0.683105C14.9733 1.46438 17.1535 2.85616 18.8819 4.7244C20.6103 6.59265 21.8285 8.87443 22.4193 11.35C24.5732 19.6028 25.0331 28.8963 37.1642 33.7366C49.2953 38.577 57.5541 30.5299 57.5541 30.5299C57.5541 30.5299 48.5692 34.8136 40.9094 25.1631C32.7958 14.9682 35.9299 1.59672 12.551 0.683105Z" fill="white"/>
<path d="M64.1915 18.0782H49.5373C50.1424 20.8856 52.4234 22.61 55.7148 22.61C57.0274 22.645 58.3259 22.3319 59.4782 21.7024C60 21.4043 60.6086 21.2951 61.2014 21.3932C61.7943 21.4912 62.3353 21.7906 62.7333 22.2409C62.9835 22.5196 63.1704 22.8492 63.2813 23.2069C63.3921 23.5647 63.4241 23.9422 63.3753 24.3135C63.3264 24.6849 63.1978 25.0412 62.9982 25.3581C62.7986 25.675 62.5328 25.945 62.219 26.1495C60.2057 27.3336 57.8981 27.9231 55.5635 27.8497C48.0973 27.8497 43.2449 22.9428 43.2449 16.2329C43.2449 9.52292 48.182 4.62207 54.7407 4.62207C61.0815 4.62207 65.9763 9.06308 65.9763 16.3175C65.9624 16.7843 65.7691 17.2276 65.4367 17.5556C65.1043 17.8835 64.6583 18.0707 64.1915 18.0782ZM49.4587 14.2665H60.0893C59.6476 11.4107 57.6025 9.56526 54.7951 9.56526C51.9877 9.56526 49.9003 11.3683 49.4587 14.2665Z" fill="white"/>
<path d="M67.0412 23.3242C67.7309 22.943 68.2513 21.2428 68.5175 20.541C68.8723 19.5354 69.1078 18.4916 69.2193 17.4311C69.7518 12.863 68.6143 8.35542 66.9746 4.12012L69.6973 4.5739C71.0906 4.71355 72.4431 5.12465 73.6785 5.78399C76.9699 7.81693 75.2698 12.5847 74.0597 15.4223C72.6647 18.7639 70.1948 21.5447 67.0412 23.3242Z" fill="white"/>
</svg>
