<svg width="27" height="25" viewBox="0 0 27 25" fill="none" xmlns="http://www.w3.org/2000/svg">
<path d="M23.6494 3.01674C23.0629 2.37738 22.3667 1.87019 21.6003 1.52415C20.834 1.17811 20.0126 1 19.1831 1C18.3535 1 17.5321 1.17811 16.7658 1.52415C15.9994 1.87019 15.3032 2.37738 14.7167 3.01674L13.4997 4.34303L12.2826 3.01674C11.0981 1.72587 9.49152 1.00067 7.81633 1.00067C6.14114 1.00067 4.53455 1.72587 3.35001 3.01674C2.16547 4.30761 1.5 6.05841 1.5 7.88397C1.5 9.70954 2.16547 11.4603 3.35001 12.7512L4.56705 14.0775L13.4997 23.812L22.4323 14.0775L23.6494 12.7512C24.2361 12.1121 24.7015 11.3534 25.019 10.5182C25.3366 9.68309 25.5 8.78796 25.5 7.88397C25.5 6.97999 25.3366 6.08486 25.019 5.24972C24.7015 4.41458 24.2361 3.65581 23.6494 3.01674V3.01674Z" stroke="#B76102" stroke-width="1.72368" stroke-linecap="round" stroke-linejoin="round"/>
</svg>
