<svg width="96" height="80" viewBox="0 0 96 80" fill="none" xmlns="http://www.w3.org/2000/svg">
<path d="M42.3573 59.3883H45.3559L47.2483 67.1151H47.3831L51.8249 59.3883H54.8235L52.9143 70.8887H50.5558L51.8024 63.4033H51.7013L47.501 70.8325H45.8894L44.1598 63.3752H44.0644L42.8065 70.8887H40.448L42.3573 59.3883ZM57.3098 71.0515C56.7632 71.0515 56.2896 70.9561 55.8891 70.7651C55.4922 70.5705 55.2002 70.2822 55.0131 69.9004C54.8259 69.5185 54.7791 69.0449 54.8727 68.4796C54.955 68.0005 55.1104 67.5999 55.3387 67.2779C55.5709 66.9522 55.8535 66.6902 56.1867 66.4918C56.5199 66.2934 56.8886 66.1418 57.2929 66.0369C57.701 65.9321 58.1221 65.861 58.5564 65.8235C59.058 65.7711 59.4661 65.7206 59.7806 65.6719C60.0988 65.6233 60.3365 65.554 60.4937 65.4642C60.651 65.3706 60.7464 65.2321 60.7801 65.0486V65.0149C60.8363 64.663 60.7708 64.3897 60.5836 64.1951C60.4001 63.9967 60.1063 63.8975 59.7019 63.8975C59.2752 63.8975 58.912 63.991 58.6125 64.1782C58.3168 64.3654 58.1053 64.6031 57.978 64.8914L55.7992 64.7117C55.9939 64.1876 56.2878 63.7346 56.6808 63.3528C57.0777 62.9672 57.555 62.6714 58.1128 62.4655C58.6706 62.2559 59.2958 62.151 59.9883 62.151C60.4675 62.151 60.9149 62.2072 61.3304 62.3195C61.7497 62.4318 62.111 62.6059 62.4142 62.8417C62.7212 63.0776 62.9421 63.3808 63.0768 63.7514C63.2153 64.1183 63.2434 64.5582 63.1611 65.0711L62.1896 70.8887H59.9209L60.1231 69.6926H60.0557C59.8723 69.9621 59.6477 70.1998 59.3819 70.4057C59.1161 70.6079 58.811 70.767 58.4665 70.8831C58.1221 70.9954 57.7365 71.0515 57.3098 71.0515ZM58.27 69.4006C58.6182 69.4006 58.9382 69.3313 59.2302 69.1928C59.526 69.0506 59.7693 68.8596 59.9603 68.62C60.1549 68.3804 60.2785 68.109 60.3309 67.8058L60.4769 66.8905C60.402 66.9391 60.2934 66.9822 60.1512 67.0196C60.0127 67.0571 59.861 67.0926 59.6963 67.1263C59.5354 67.1563 59.3725 67.1844 59.2078 67.2106C59.0431 67.233 58.8952 67.2555 58.7642 67.2779C58.4759 67.3191 58.2176 67.3846 57.9892 67.4745C57.7609 67.5643 57.5756 67.686 57.4333 67.8395C57.291 67.9892 57.2031 68.1764 57.1694 68.401C57.117 68.7267 57.1937 68.9757 57.3996 69.1479C57.6093 69.3163 57.8994 69.4006 58.27 69.4006ZM64.0455 70.8887L65.483 62.2634H67.8022L67.5495 63.7683H67.6394C67.8864 63.233 68.2178 62.8286 68.6333 62.5554C69.0526 62.2783 69.5037 62.1398 69.9866 62.1398C70.1064 62.1398 70.2318 62.1473 70.3629 62.1623C70.4976 62.1735 70.6174 62.1922 70.7222 62.2184L70.3629 64.3467C70.258 64.3092 70.1083 64.2793 69.9136 64.2568C69.7227 64.2306 69.5411 64.2175 69.3689 64.2175C69.0208 64.2175 68.6969 64.2943 68.3975 64.4478C68.098 64.5975 67.8453 64.8072 67.6394 65.0767C67.4372 65.3462 67.3043 65.657 67.2407 66.0089L66.4377 70.8887H64.0455ZM73.0934 68.4066L73.5707 65.5372H73.9188L77.2376 62.2634H79.9835L75.5585 66.5985H74.9858L73.0934 68.4066ZM70.5159 70.8887L72.4251 59.3883H74.8173L72.9081 70.8887H70.5159ZM75.9067 70.8887L73.9974 67.1319L75.8674 65.4417L78.7088 70.8887H75.9067ZM83.2727 71.0571C82.3893 71.0571 81.6574 70.8774 81.0771 70.5181C80.4969 70.1549 80.0888 69.642 79.8529 68.9794C79.6208 68.3131 79.5815 67.525 79.735 66.6153C79.8848 65.7281 80.1861 64.9494 80.6391 64.2793C81.0958 63.6092 81.6686 63.087 82.3574 62.7126C83.0463 62.3382 83.8137 62.151 84.6598 62.151C85.2288 62.151 85.7435 62.2428 86.204 62.4262C86.6682 62.6059 87.0538 62.8792 87.3608 63.2461C87.6678 63.6092 87.8774 64.064 87.9897 64.6106C88.1058 65.1572 88.1039 65.7973 87.9841 66.5311L87.8774 67.1881H80.5998L80.83 65.7056H85.8615C85.9176 65.3612 85.8952 65.0561 85.7941 64.7903C85.693 64.5245 85.5245 64.3167 85.2887 64.167C85.0528 64.0135 84.7627 63.9368 84.4183 63.9368C84.0664 63.9368 83.737 64.0229 83.43 64.1951C83.123 64.3673 82.8647 64.5938 82.6551 64.8745C82.4492 65.1516 82.3163 65.4529 82.2564 65.7786L81.9924 67.2499C81.9176 67.7028 81.9325 68.0791 82.0374 68.3786C82.1459 68.6781 82.3331 68.9027 82.5989 69.0524C82.8647 69.1984 83.2016 69.2714 83.6097 69.2714C83.8755 69.2714 84.1244 69.234 84.3565 69.1591C84.5924 69.0842 84.802 68.9738 84.9855 68.8278C85.1689 68.6781 85.3186 68.4928 85.4347 68.2719L87.6191 68.4179C87.4169 68.9495 87.11 69.4137 86.6982 69.8105C86.2864 70.2036 85.7903 70.5106 85.2101 70.7314C84.6336 70.9486 83.9878 71.0571 83.2727 71.0571ZM94.856 62.2634L94.5584 64.0603H89.3585L89.6617 62.2634H94.856ZM91.1779 60.1969H93.5701L92.2336 68.2382C92.1961 68.4591 92.2018 68.6313 92.2504 68.7548C92.2991 68.8746 92.3796 68.9588 92.4919 69.0075C92.6079 69.0562 92.7465 69.0805 92.9074 69.0805C93.0197 69.0805 93.1339 69.0711 93.25 69.0524C93.366 69.03 93.454 69.0131 93.5139 69.0019L93.6038 70.782C93.469 70.8232 93.2874 70.8681 93.0591 70.9167C92.8344 70.9654 92.5686 70.9954 92.2617 71.0066C91.6777 71.0291 91.1835 70.9523 90.7792 70.7764C90.3749 70.5967 90.0847 70.3215 89.9088 69.9509C89.7328 69.5803 89.6954 69.1142 89.7965 68.5526L91.1779 60.1969Z" fill="#010125"/>
<path d="M0.999548 70.8887V59.3883H8.74885V61.393H3.43103V64.1333H8.35016V66.138H3.43103V68.884H8.77132V70.8887H0.999548ZM13.0966 71.0515C12.5463 71.0515 12.0559 70.9561 11.6254 70.7651C11.1948 70.5705 10.8542 70.2841 10.6034 69.906C10.3563 69.5241 10.2327 69.0487 10.2327 68.4796C10.2327 68.0005 10.3207 67.598 10.4967 67.2723C10.6726 66.9466 10.9122 66.6846 11.2154 66.4862C11.5187 66.2878 11.8631 66.138 12.2487 66.0369C12.638 65.9359 13.0461 65.8647 13.4728 65.8235C13.9745 65.7711 14.3788 65.7225 14.6858 65.6775C14.9928 65.6289 15.2155 65.5577 15.354 65.4642C15.4925 65.3706 15.5618 65.2321 15.5618 65.0486V65.0149C15.5618 64.6593 15.4495 64.3841 15.2249 64.1895C15.004 63.9948 14.6895 63.8975 14.2815 63.8975C13.8509 63.8975 13.5084 63.9929 13.2538 64.1838C12.9993 64.371 12.8308 64.6069 12.7485 64.8914L10.536 64.7117C10.6483 64.1876 10.8692 63.7346 11.1986 63.3528C11.528 62.9672 11.9529 62.6714 12.4733 62.4655C12.9974 62.2559 13.6039 62.151 14.2927 62.151C14.7719 62.151 15.2305 62.2072 15.6685 62.3195C16.1102 62.4318 16.5014 62.6059 16.8421 62.8417C17.1865 63.0776 17.4579 63.3808 17.6563 63.7514C17.8548 64.1183 17.954 64.5582 17.954 65.0711V70.8887H15.6853V69.6926H15.6179C15.4794 69.9621 15.2941 70.1998 15.062 70.4057C14.8299 70.6079 14.551 70.767 14.2253 70.8831C13.8996 70.9954 13.5234 71.0515 13.0966 71.0515ZM13.7817 69.4006C14.1336 69.4006 14.4443 69.3313 14.7139 69.1928C14.9834 69.0506 15.1949 68.8596 15.3484 68.62C15.5019 68.3804 15.5786 68.109 15.5786 67.8058V66.8905C15.5038 66.9391 15.4008 66.9841 15.2698 67.0252C15.1425 67.0627 14.9984 67.0983 14.8374 67.1319C14.6764 67.1619 14.5154 67.19 14.3545 67.2162C14.1935 67.2386 14.0475 67.2592 13.9165 67.2779C13.6357 67.3191 13.3905 67.3846 13.1808 67.4745C12.9712 67.5643 12.8083 67.686 12.6923 67.8395C12.5762 67.9892 12.5182 68.1764 12.5182 68.401C12.5182 68.7267 12.6361 68.9757 12.872 69.1479C13.1116 69.3163 13.4148 69.4006 13.7817 69.4006ZM26.9864 64.7229L24.7964 64.8577C24.7589 64.6705 24.6785 64.502 24.5549 64.3523C24.4314 64.1988 24.2685 64.0771 24.0664 63.9873C23.868 63.8937 23.6302 63.8469 23.3532 63.8469C22.9826 63.8469 22.67 63.9255 22.4154 64.0828C22.1609 64.2362 22.0336 64.4421 22.0336 64.7005C22.0336 64.9064 22.1159 65.0804 22.2807 65.2227C22.4454 65.365 22.728 65.4791 23.1286 65.5652L24.6897 65.8797C25.5283 66.0519 26.1534 66.3289 26.5652 66.7108C26.977 67.0926 27.1829 67.5943 27.1829 68.2157C27.1829 68.781 27.0163 69.277 26.6832 69.7038C26.3537 70.1306 25.9007 70.4638 25.3242 70.7034C24.7515 70.9392 24.0907 71.0571 23.342 71.0571C22.2002 71.0571 21.2905 70.8194 20.6129 70.344C19.939 69.8648 19.5441 69.2134 19.428 68.3898L21.7809 68.2663C21.852 68.6144 22.0242 68.8802 22.2975 69.0637C22.5708 69.2433 22.9208 69.3332 23.3476 69.3332C23.7669 69.3332 24.1038 69.2527 24.3584 69.0917C24.6167 68.927 24.7477 68.7155 24.7515 68.4572C24.7477 68.2401 24.656 68.0622 24.4763 67.9237C24.2966 67.7815 24.0196 67.6729 23.6452 67.598L22.1515 67.3004C21.3092 67.1319 20.6821 66.8399 20.2703 66.4244C19.8623 66.0089 19.6582 65.4791 19.6582 64.8352C19.6582 64.2812 19.808 63.8039 20.1075 63.4033C20.4107 63.0027 20.8356 62.6939 21.3822 62.4767C21.9325 62.2596 22.5764 62.151 23.3139 62.151C24.4033 62.151 25.2606 62.3813 25.8858 62.8417C26.5147 63.3022 26.8816 63.9293 26.9864 64.7229ZM30.1661 74.1232C29.8629 74.1232 29.5784 74.0988 29.3126 74.0502C29.0505 74.0052 28.8334 73.9472 28.6612 73.8761L29.2003 72.0904C29.4811 72.1765 29.7337 72.2233 29.9584 72.2308C30.1867 72.2382 30.3833 72.1858 30.548 72.0735C30.7165 71.9612 30.8531 71.7703 30.9579 71.5008L31.0983 71.1358L28.0042 62.2634H30.5199L32.3056 68.5976H32.3955L34.198 62.2634H36.7306L33.3782 71.8208C33.2172 72.285 32.9982 72.6894 32.7212 73.0338C32.4479 73.3819 32.1016 73.6496 31.6823 73.8368C31.263 74.0277 30.7576 74.1232 30.1661 74.1232Z" fill="#B76102"/>
<path d="M2.52474 78.6512V78.9277H0.396999V75.7607H2.48459V76.0372H0.709246V77.1792H2.2571V77.4423H0.709246V78.6512H2.52474ZM4.09657 75.7607H4.35975L5.67564 78.9277H5.34555L4.93517 77.9375H3.51222L3.1063 78.9277H2.77175L4.09657 75.7607ZM4.8638 77.6921L4.22593 76.1264L3.57913 77.6921H4.8638ZM7.93727 76.3539C7.89266 76.3034 7.84062 76.2588 7.78115 76.2201C7.72167 76.1785 7.65476 76.1428 7.58042 76.1131C7.50607 76.0833 7.42578 76.0595 7.33954 76.0417C7.25627 76.0238 7.16706 76.0149 7.0719 76.0149C6.79534 76.0149 6.59164 76.0684 6.46079 76.1755C6.33292 76.2796 6.26898 76.4223 6.26898 76.6037C6.26898 76.7286 6.29872 76.8268 6.35819 76.8981C6.42064 76.9695 6.51729 77.0275 6.64814 77.0721C6.77898 77.1167 6.94552 77.1628 7.14773 77.2104C7.37374 77.258 7.56852 77.3145 7.73208 77.3799C7.89564 77.4453 8.02202 77.5345 8.11124 77.6475C8.20045 77.7576 8.24506 77.9077 8.24506 78.0981C8.24506 78.2438 8.21681 78.3702 8.1603 78.4772C8.1038 78.5843 8.025 78.6735 7.92389 78.7448C7.82278 78.8162 7.70234 78.8697 7.56257 78.9054C7.42281 78.9381 7.26966 78.9545 7.10313 78.9545C6.93957 78.9545 6.78196 78.9381 6.63029 78.9054C6.48161 78.8697 6.34035 78.8192 6.20653 78.7538C6.07271 78.6854 5.94781 78.5991 5.83183 78.495L5.98796 78.2408C6.04446 78.3003 6.11137 78.3568 6.18869 78.4103C6.26898 78.4609 6.35671 78.5069 6.45187 78.5486C6.55 78.5902 6.65408 78.6229 6.76411 78.6467C6.87712 78.6675 6.9931 78.6779 7.11205 78.6779C7.36482 78.6779 7.56109 78.6318 7.70085 78.5397C7.8436 78.4475 7.91497 78.3107 7.91497 78.1293C7.91497 77.9984 7.87928 77.8943 7.80791 77.817C7.73654 77.7367 7.62948 77.6713 7.48674 77.6208C7.344 77.5702 7.16855 77.5211 6.96038 77.4736C6.74032 77.423 6.55446 77.3665 6.4028 77.3041C6.25114 77.2416 6.13665 77.1598 6.05933 77.0587C5.98498 76.9546 5.94781 76.8178 5.94781 76.6483C5.94781 76.4521 5.99539 76.287 6.09055 76.1532C6.18869 76.0164 6.32251 75.9138 6.49201 75.8454C6.66152 75.774 6.8563 75.7384 7.07636 75.7384C7.21613 75.7384 7.34549 75.7532 7.46444 75.783C7.58636 75.8097 7.69788 75.8499 7.79899 75.9034C7.90307 75.9569 7.99972 76.0238 8.08893 76.1041L7.93727 76.3539ZM8.73939 75.7607L9.77426 77.4646L10.8181 75.7607H11.1571L9.93039 77.7501V78.9277H9.61814V77.7412L8.39592 75.7607H8.73939ZM15.4086 78.9277V76.3495L14.2622 78.3523H14.0659L12.9151 76.3495V78.9277H12.6029V75.7607H12.924L14.1596 77.9285L15.4041 75.7607H15.7209V78.9277H15.4086ZM17.496 75.7607H17.7592L19.0751 78.9277H18.745L18.3346 77.9375H16.9116L16.5057 78.9277H16.1712L17.496 75.7607ZM18.2632 77.6921L17.6254 76.1264L16.9786 77.6921H18.2632ZM19.5291 78.9277V75.7607H20.8673C21.0041 75.7607 21.129 75.7889 21.242 75.8454C21.355 75.9019 21.4531 75.9792 21.5364 76.0774C21.6226 76.1725 21.688 76.2796 21.7327 76.3985C21.7802 76.5145 21.804 76.6335 21.804 76.7554C21.804 76.9071 21.7743 77.0498 21.7148 77.1836C21.6583 77.3174 21.5765 77.4304 21.4695 77.5226C21.3654 77.6148 21.242 77.6758 21.0992 77.7055L21.8754 78.9277H21.523L20.7781 77.759H19.8413V78.9277H19.5291ZM19.8413 77.4825H20.8762C21.0011 77.4825 21.1096 77.4483 21.2018 77.3799C21.294 77.3115 21.3654 77.2223 21.4159 77.1122C21.4665 76.9992 21.4918 76.8803 21.4918 76.7554C21.4918 76.6275 21.462 76.5101 21.4026 76.403C21.3461 76.293 21.2687 76.2052 21.1706 76.1398C21.0754 76.0714 20.9684 76.0372 20.8494 76.0372H19.8413V77.4825ZM22.4433 78.9277V75.7651H22.7556V77.6029L24.4997 75.7607H24.8432L23.5496 77.1524L24.9101 78.9277H24.5577L23.3488 77.3397L22.7556 77.9553V78.9277H22.4433ZM27.4374 78.6512V78.9277H25.3097V75.7607H27.3972V76.0372H25.6219V77.1792H27.1698V77.4423H25.6219V78.6512H27.4374ZM30.276 76.0372H29.1475V78.9277H28.8353V76.0372H27.7067V75.7607H30.276V76.0372ZM31.6497 77.8527V77.5717H32.9522V77.8527H31.6497ZM36.9032 78.6512V78.9277H34.7755V75.7607H36.8631V76.0372H35.0878V77.1792H36.6356V77.4423H35.0878V78.6512H36.9032ZM38.4751 75.7607H38.7383L40.0541 78.9277H39.7241L39.3137 77.9375H37.8907L37.4848 78.9277H37.1503L38.4751 75.7607ZM39.2423 77.6921L38.6044 76.1264L37.9576 77.6921H39.2423ZM42.3158 76.3539C42.2712 76.3034 42.2191 76.2588 42.1596 76.2201C42.1002 76.1785 42.0333 76.1428 41.9589 76.1131C41.8846 76.0833 41.8043 76.0595 41.718 76.0417C41.6348 76.0238 41.5456 76.0149 41.4504 76.0149C41.1738 76.0149 40.9701 76.0684 40.8393 76.1755C40.7114 76.2796 40.6475 76.4223 40.6475 76.6037C40.6475 76.7286 40.6772 76.8268 40.7367 76.8981C40.7991 76.9695 40.8958 77.0275 41.0266 77.0721C41.1575 77.1167 41.324 77.1628 41.5262 77.2104C41.7522 77.258 41.947 77.3145 42.1106 77.3799C42.2741 77.4453 42.4005 77.5345 42.4897 77.6475C42.579 77.7576 42.6236 77.9077 42.6236 78.0981C42.6236 78.2438 42.5953 78.3702 42.5388 78.4772C42.4823 78.5843 42.4035 78.6735 42.3024 78.7448C42.2013 78.8162 42.0808 78.8697 41.9411 78.9054C41.8013 78.9381 41.6482 78.9545 41.4816 78.9545C41.3181 78.9545 41.1605 78.9381 41.0088 78.9054C40.8601 78.8697 40.7189 78.8192 40.585 78.7538C40.4512 78.6854 40.3263 78.5991 40.2103 78.495L40.3665 78.2408C40.423 78.3003 40.4899 78.3568 40.5672 78.4103C40.6475 78.4609 40.7352 78.5069 40.8304 78.5486C40.9285 78.5902 41.0326 78.6229 41.1426 78.6467C41.2556 78.6675 41.3716 78.6779 41.4905 78.6779C41.7433 78.6779 41.9396 78.6318 42.0794 78.5397C42.2221 78.4475 42.2935 78.3107 42.2935 78.1293C42.2935 77.9984 42.2578 77.8943 42.1864 77.817C42.115 77.7367 42.008 77.6713 41.8652 77.6208C41.7225 77.5702 41.5471 77.5211 41.3389 77.4736C41.1188 77.423 40.933 77.3665 40.7813 77.3041C40.6296 77.2416 40.5152 77.1598 40.4378 77.0587C40.3635 76.9546 40.3263 76.8178 40.3263 76.6483C40.3263 76.4521 40.3739 76.287 40.4691 76.1532C40.5672 76.0164 40.701 75.9138 40.8705 75.8454C41.04 75.774 41.2348 75.7384 41.4549 75.7384C41.5946 75.7384 41.724 75.7532 41.8429 75.783C41.9649 75.8097 42.0764 75.8499 42.1775 75.9034C42.2816 75.9569 42.3782 76.0238 42.4674 76.1041L42.3158 76.3539ZM43.1179 75.7607L44.1528 77.4646L45.1966 75.7607H45.5356L44.3089 77.7501V78.9277H43.9966V77.7412L42.7744 75.7607H43.1179ZM48.8325 76.3539C48.7879 76.3034 48.7359 76.2588 48.6764 76.2201C48.6169 76.1785 48.55 76.1428 48.4757 76.1131C48.4013 76.0833 48.321 76.0595 48.2348 76.0417C48.1515 76.0238 48.0623 76.0149 47.9672 76.0149C47.6906 76.0149 47.4869 76.0684 47.356 76.1755C47.2282 76.2796 47.1642 76.4223 47.1642 76.6037C47.1642 76.7286 47.194 76.8268 47.2535 76.8981C47.3159 76.9695 47.4126 77.0275 47.5434 77.0721C47.6742 77.1167 47.8408 77.1628 48.043 77.2104C48.269 77.258 48.4638 77.3145 48.6273 77.3799C48.7909 77.4453 48.9173 77.5345 49.0065 77.6475C49.0957 77.7576 49.1403 77.9077 49.1403 78.0981C49.1403 78.2438 49.1121 78.3702 49.0556 78.4772C48.9991 78.5843 48.9203 78.6735 48.8191 78.7448C48.718 78.8162 48.5976 78.8697 48.4578 78.9054C48.3181 78.9381 48.1649 78.9545 47.9984 78.9545C47.8348 78.9545 47.6772 78.9381 47.5256 78.9054C47.3769 78.8697 47.2356 78.8192 47.1018 78.7538C46.968 78.6854 46.8431 78.5991 46.7271 78.495L46.8832 78.2408C46.9397 78.3003 47.0066 78.3568 47.0839 78.4103C47.1642 78.4609 47.252 78.5069 47.3471 78.5486C47.4453 78.5902 47.5493 78.6229 47.6594 78.6467C47.7724 78.6675 47.8884 78.6779 48.0073 78.6779C48.2601 78.6779 48.4563 78.6318 48.5961 78.5397C48.7389 78.4475 48.8102 78.3107 48.8102 78.1293C48.8102 77.9984 48.7745 77.8943 48.7032 77.817C48.6318 77.7367 48.5247 77.6713 48.382 77.6208C48.2393 77.5702 48.0638 77.5211 47.8556 77.4736C47.6356 77.423 47.4497 77.3665 47.2981 77.3041C47.1464 77.2416 47.0319 77.1598 46.9546 77.0587C46.8802 76.9546 46.8431 76.8178 46.8431 76.6483C46.8431 76.4521 46.8907 76.287 46.9858 76.1532C47.0839 76.0164 47.2178 75.9138 47.3873 75.8454C47.5568 75.774 47.7516 75.7384 47.9716 75.7384C48.1114 75.7384 48.2407 75.7532 48.3597 75.783C48.4816 75.8097 48.5931 75.8499 48.6943 75.9034C48.7983 75.9569 48.895 76.0238 48.9842 76.1041L48.8325 76.3539ZM52.1888 75.7607V78.9277H51.881V77.4468H50.0031V78.9277H49.6909V75.7607H50.0031V77.1702H51.881V75.7607H52.1888ZM54.2598 78.95C54.0368 78.95 53.8346 78.9054 53.6532 78.8162C53.4718 78.727 53.3157 78.6066 53.1848 78.4549C53.054 78.3003 52.9529 78.1278 52.8815 77.9375C52.8101 77.7442 52.7744 77.5464 52.7744 77.3442C52.7744 77.1331 52.8116 76.9323 52.886 76.742C52.9603 76.5487 53.0644 76.3777 53.1982 76.229C53.335 76.0774 53.4941 75.9584 53.6755 75.8722C53.8569 75.783 54.0532 75.7384 54.2643 75.7384C54.4873 75.7384 54.6896 75.7845 54.871 75.8766C55.0524 75.9688 55.207 76.0922 55.3349 76.2469C55.4657 76.4015 55.5668 76.574 55.6382 76.7643C55.7096 76.9546 55.7452 77.1494 55.7452 77.3487C55.7452 77.5598 55.7081 77.762 55.6337 77.9553C55.5594 78.1456 55.4553 78.3166 55.3215 78.4683C55.1877 78.617 55.03 78.7344 54.8486 78.8207C54.6672 78.9069 54.471 78.95 54.2598 78.95ZM53.0867 77.3442C53.0867 77.5167 53.1149 77.6832 53.1714 77.8438C53.2279 78.0014 53.3082 78.1427 53.4123 78.2676C53.5164 78.3895 53.6398 78.4876 53.7825 78.562C53.9283 78.6333 54.0874 78.669 54.2598 78.669C54.4412 78.669 54.6033 78.6318 54.7461 78.5575C54.8918 78.4802 55.0152 78.3791 55.1163 78.2542C55.2204 78.1263 55.2992 77.9836 55.3527 77.8259C55.4062 77.6683 55.433 77.5078 55.433 77.3442C55.433 77.1717 55.4047 77.0067 55.3482 76.8491C55.2917 76.6915 55.21 76.5502 55.1029 76.4253C54.9988 76.3004 54.8754 76.2023 54.7327 76.1309C54.5899 76.0595 54.4323 76.0238 54.2598 76.0238C54.0814 76.0238 53.9193 76.061 53.7736 76.1354C53.6309 76.2097 53.5075 76.3108 53.4034 76.4387C53.3023 76.5636 53.2235 76.7048 53.167 76.8624C53.1134 77.0201 53.0867 77.1806 53.0867 77.3442ZM56.3339 78.9277V75.7607H57.6454C57.7822 75.7607 57.9071 75.7889 58.0201 75.8454C58.1361 75.9019 58.2357 75.9792 58.3189 76.0774C58.4022 76.1725 58.4676 76.2796 58.5152 76.3985C58.5628 76.5145 58.5866 76.6335 58.5866 76.7554C58.5866 76.9279 58.5479 77.0914 58.4706 77.2461C58.3963 77.3977 58.2907 77.5211 58.1539 77.6163C58.0171 77.7115 57.8565 77.759 57.6721 77.759H56.6462V78.9277H56.3339ZM56.6462 77.4825H57.6588C57.7837 77.4825 57.8922 77.4483 57.9844 77.3799C58.0766 77.3115 58.148 77.2223 58.1985 77.1122C58.2491 77.0022 58.2743 76.8833 58.2743 76.7554C58.2743 76.6245 58.2446 76.5041 58.1851 76.3941C58.1256 76.284 58.0468 76.1978 57.9487 76.1354C57.8535 76.0699 57.748 76.0372 57.632 76.0372H56.6462V77.4825ZM59.1088 78.9277V75.7607H60.4202C60.557 75.7607 60.6819 75.7889 60.7949 75.8454C60.9109 75.9019 61.0105 75.9792 61.0938 76.0774C61.1771 76.1725 61.2425 76.2796 61.2901 76.3985C61.3376 76.5145 61.3614 76.6335 61.3614 76.7554C61.3614 76.9279 61.3228 77.0914 61.2455 77.2461C61.1711 77.3977 61.0655 77.5211 60.9287 77.6163C60.792 77.7115 60.6314 77.759 60.447 77.759H59.421V78.9277H59.1088ZM59.421 77.4825H60.4336C60.5585 77.4825 60.6671 77.4483 60.7592 77.3799C60.8514 77.3115 60.9228 77.2223 60.9734 77.1122C61.0239 77.0022 61.0492 76.8833 61.0492 76.7554C61.0492 76.6245 61.0194 76.5041 60.96 76.3941C60.9005 76.284 60.8217 76.1978 60.7236 76.1354C60.6284 76.0699 60.5228 76.0372 60.4068 76.0372H59.421V77.4825ZM61.8836 78.9277V75.7607H62.1959V78.9277H61.8836ZM63.3023 76.3361V78.9277H62.9901V75.7607H63.2488L65.3275 78.4014V75.7651H65.6397V78.9277H65.3498L63.3023 76.3361ZM67.7071 78.95C67.4959 78.95 67.2997 78.9054 67.1183 78.8162C66.9369 78.724 66.7793 78.6006 66.6454 78.446C66.5116 78.2913 66.4075 78.1189 66.3332 77.9285C66.2618 77.7382 66.2261 77.542 66.2261 77.3397C66.2261 77.1256 66.2618 76.9234 66.3332 76.7331C66.4075 76.5398 66.5101 76.3688 66.641 76.2201C66.7718 76.0714 66.9265 75.954 67.1049 75.8677C67.2833 75.7815 67.4781 75.7384 67.6892 75.7384C68.0015 75.7384 68.2557 75.8023 68.452 75.9302C68.6483 76.058 68.797 76.2246 68.8981 76.4298L68.6572 76.5903C68.5561 76.3941 68.4208 76.2498 68.2513 76.1577C68.0818 76.0655 67.8929 76.0194 67.6848 76.0194C67.5093 76.0194 67.3502 76.0566 67.2075 76.1309C67.0677 76.2052 66.9473 76.3049 66.8462 76.4298C66.7451 76.5547 66.6677 76.6959 66.6142 76.8535C66.5637 77.0111 66.5384 77.1747 66.5384 77.3442C66.5384 77.5226 66.5681 77.6921 66.6276 77.8527C66.6871 78.0103 66.7718 78.1516 66.8819 78.2765C66.9919 78.3984 67.1183 78.495 67.261 78.5664C67.4067 78.6348 67.5628 78.669 67.7294 78.669C67.9227 78.669 68.1056 78.6214 68.278 78.5263C68.4505 78.4281 68.6156 78.278 68.7732 78.0757V78.4058C68.4728 78.7686 68.1175 78.95 67.7071 78.95ZM68.7241 77.6118H68.0193V77.371H68.9873V78.9277H68.7241V77.6118ZM70.6587 77.8527V77.5717H71.9612V77.8527H70.6587ZM75.9123 78.6512V78.9277H73.7846V75.7607H75.8722V76.0372H74.0968V77.1792H75.6447V77.4423H74.0968V78.6512H75.9123ZM77.4841 75.7607H77.7473L79.0632 78.9277H78.7331L78.3227 77.9375H76.8998L76.4939 78.9277H76.1593L77.4841 75.7607ZM78.2514 77.6921L77.6135 76.1264L76.9667 77.6921H78.2514ZM81.3248 76.3539C81.2802 76.3034 81.2282 76.2588 81.1687 76.2201C81.1092 76.1785 81.0423 76.1428 80.968 76.1131C80.8936 76.0833 80.8133 76.0595 80.7271 76.0417C80.6438 76.0238 80.5546 76.0149 80.4595 76.0149C80.1829 76.0149 79.9792 76.0684 79.8484 76.1755C79.7205 76.2796 79.6565 76.4223 79.6565 76.6037C79.6565 76.7286 79.6863 76.8268 79.7458 76.8981C79.8082 76.9695 79.9049 77.0275 80.0357 77.0721C80.1665 77.1167 80.3331 77.1628 80.5353 77.2104C80.7613 77.258 80.9561 77.3145 81.1196 77.3799C81.2832 77.4453 81.4096 77.5345 81.4988 77.6475C81.588 77.7576 81.6326 77.9077 81.6326 78.0981C81.6326 78.2438 81.6044 78.3702 81.5479 78.4772C81.4914 78.5843 81.4126 78.6735 81.3115 78.7448C81.2103 78.8162 81.0899 78.8697 80.9501 78.9054C80.8104 78.9381 80.6572 78.9545 80.4907 78.9545C80.3271 78.9545 80.1695 78.9381 80.0179 78.9054C79.8692 78.8697 79.7279 78.8192 79.5941 78.7538C79.4603 78.6854 79.3354 78.5991 79.2194 78.495L79.3755 78.2408C79.432 78.3003 79.4989 78.3568 79.5763 78.4103C79.6565 78.4609 79.7443 78.5069 79.8394 78.5486C79.9376 78.5902 80.0417 78.6229 80.1517 78.6467C80.2647 78.6675 80.3807 78.6779 80.4996 78.6779C80.7524 78.6779 80.9487 78.6318 81.0884 78.5397C81.2312 78.4475 81.3025 78.3107 81.3025 78.1293C81.3025 77.9984 81.2668 77.8943 81.1955 77.817C81.1241 77.7367 81.0171 77.6713 80.8743 77.6208C80.7316 77.5702 80.5561 77.5211 80.348 77.4736C80.1279 77.423 79.942 77.3665 79.7904 77.3041C79.6387 77.2416 79.5242 77.1598 79.4469 77.0587C79.3726 76.9546 79.3354 76.8178 79.3354 76.6483C79.3354 76.4521 79.383 76.287 79.4781 76.1532C79.5763 76.0164 79.7101 75.9138 79.8796 75.8454C80.0491 75.774 80.2439 75.7384 80.4639 75.7384C80.6037 75.7384 80.7331 75.7532 80.852 75.783C80.9739 75.8097 81.0854 75.8499 81.1866 75.9034C81.2906 75.9569 81.3873 76.0238 81.4765 76.1041L81.3248 76.3539ZM82.127 75.7607L83.1618 77.4646L84.2056 75.7607H84.5446L83.318 77.7501V78.9277H83.0057V77.7412L81.7835 75.7607H82.127ZM85.9904 78.9277V75.7607H86.3027V78.6512H88.1315V78.9277H85.9904ZM88.591 78.9277V75.7607H88.9033V78.9277H88.591ZM89.6975 78.9277V75.7607H91.7761V76.0372H90.0097V77.2015H91.4996V77.4602H90.0097V78.9277H89.6975ZM94.452 78.6512V78.9277H92.3242V75.7607H94.4118V76.0372H92.6365V77.1792H94.1843V77.4423H92.6365V78.6512H94.452Z" fill="#676767"/>
<path d="M80.9607 6.97974C81.1489 7.48956 80.1778 11.2646 77.1249 16.0472C71.1467 25.4061 61.3448 31.7303 51.3365 34.3279C47.8209 35.3347 44.1586 35.7309 40.509 35.4993C37.711 35.2444 34.2515 34.5707 32.012 32.5375C32.012 32.5375 41.6743 46.0295 64.1245 39.6507C90.3802 32.2037 80.9607 6.97974 80.9607 6.97974Z" fill="url(#paint0_linear_213_15727)"/>
<path d="M48.6107 49.7423C50.3809 48.0191 50.4189 45.1872 48.6957 43.417C46.9725 41.6469 44.1406 41.6088 42.3704 43.332C40.6003 45.0552 40.5622 47.8871 42.2854 49.6573C44.0086 51.4275 46.8406 51.4655 48.6107 49.7423Z" fill="url(#paint1_linear_213_15727)"/>
<path d="M69.0899 49.7013C70.8367 47.9544 70.8367 45.1222 69.0899 43.3754C67.343 41.6286 64.5108 41.6286 62.764 43.3754C61.0172 45.1222 61.0172 47.9544 62.764 49.7013C64.5108 51.4481 67.343 51.4481 69.0899 49.7013Z" fill="url(#paint2_linear_213_15727)"/>
<path d="M12.5903 0C15.0201 0.783709 17.2072 2.17982 18.9409 4.05389C20.6747 5.92795 21.8967 8.21684 22.4893 10.7001C24.65 18.9786 25.1113 28.3011 37.2802 33.1565C49.4491 38.0119 57.7336 29.9398 57.7336 29.9398C57.7336 29.9398 48.7208 34.2368 41.037 24.5563C32.8981 14.3296 36.042 0.916461 12.5903 0Z" fill="url(#paint3_linear_213_15727)"/>
<path d="M64.3917 17.4492H49.6919C50.2989 20.2654 52.587 21.9951 55.8887 21.9951C57.2053 22.0303 58.5078 21.7162 59.6638 21.0847C60.1872 20.7857 60.7977 20.6761 61.3924 20.7745C61.9871 20.8729 62.5298 21.1732 62.929 21.6249C63.18 21.9045 63.3675 22.2351 63.4787 22.5939C63.5898 22.9528 63.622 23.3315 63.573 23.704C63.524 24.0765 63.395 24.4339 63.1947 24.7518C62.9945 25.0697 62.7279 25.3405 62.4131 25.5457C60.3936 26.7335 58.0788 27.3248 55.7369 27.2511C48.2474 27.2511 43.3799 22.329 43.3799 15.5981C43.3799 8.86729 48.3324 3.95117 54.9115 3.95117C61.2721 3.95117 66.1822 8.40602 66.1822 15.6831C66.1682 16.1513 65.9743 16.596 65.6409 16.9249C65.3074 17.2539 64.86 17.4416 64.3917 17.4492ZM49.613 13.6256H60.2768C59.8337 10.7609 57.7823 8.90976 54.9661 8.90976C52.15 8.90976 50.0561 10.7184 49.613 13.6256Z" fill="#010125"/>
<path d="M67.2504 22.7112C67.9423 22.3288 68.4642 20.6233 68.7313 19.9193C69.0872 18.9105 69.3234 17.8635 69.4353 16.7997C69.9694 12.2174 68.8284 7.69576 67.1836 3.44727L69.9148 3.90246C71.3124 4.04255 72.6691 4.45493 73.9084 5.11632C77.21 7.1556 75.5046 11.9382 74.2907 14.7847C72.8914 18.1367 70.4138 20.9261 67.2504 22.7112Z" fill="url(#paint4_linear_213_15727)"/>
<defs>
<linearGradient id="paint0_linear_213_15727" x1="79.498" y1="6.73696" x2="50.3655" y2="36.7253" gradientUnits="userSpaceOnUse">
<stop stop-color="#DB242A"/>
<stop offset="1" stop-color="#E58924"/>
</linearGradient>
<linearGradient id="paint1_linear_213_15727" x1="45.6302" y1="36.2715" x2="45.4178" y2="51.5904" gradientUnits="userSpaceOnUse">
<stop stop-color="#DB242A"/>
<stop offset="1" stop-color="#E58924"/>
</linearGradient>
<linearGradient id="paint2_linear_213_15727" x1="66.0791" y1="35.0971" x2="65.8667" y2="51.0532" gradientUnits="userSpaceOnUse">
<stop stop-color="#DB242A"/>
<stop offset="1" stop-color="#E58924"/>
</linearGradient>
<linearGradient id="paint3_linear_213_15727" x1="51.64" y1="37.4195" x2="27.546" y2="13.1287" gradientUnits="userSpaceOnUse">
<stop stop-color="#DB242A"/>
<stop offset="1" stop-color="#E58924"/>
</linearGradient>
<linearGradient id="paint4_linear_213_15727" x1="67.4142" y1="25.236" x2="71.1286" y2="8.38159" gradientUnits="userSpaceOnUse">
<stop stop-color="#DB242A"/>
<stop offset="1" stop-color="#E58924"/>
</linearGradient>
</defs>
</svg>
