<svg width="19" height="19" viewBox="0 0 19 19" fill="none" xmlns="http://www.w3.org/2000/svg">
<path d="M14.5 13H5.888L6.221 12H16.254L18.826 3H4.144L3.244 0H0.5V2H1.756L4.451 10.985L3.743 13.109C3.20161 13.2514 2.71097 13.5427 2.32676 13.9499C1.94254 14.3571 1.68013 14.8637 1.56929 15.4125C1.45846 15.9612 1.50363 16.53 1.69969 17.0544C1.89576 17.5787 2.23486 18.0376 2.67852 18.379C3.12219 18.7204 3.65266 18.9307 4.20975 18.9859C4.76684 19.041 5.32824 18.939 5.83027 18.6913C6.33229 18.4436 6.75485 18.0601 7.04998 17.5844C7.34511 17.1087 7.50102 16.5598 7.5 16C7.49669 15.6586 7.43444 15.3203 7.316 15H11.684C11.5656 15.3203 11.5033 15.6586 11.5 16C11.5 16.5933 11.6759 17.1734 12.0056 17.6667C12.3352 18.1601 12.8038 18.5446 13.3519 18.7716C13.9001 18.9987 14.5033 19.0581 15.0853 18.9424C15.6672 18.8266 16.2018 18.5409 16.6213 18.1213C17.0409 17.7018 17.3266 17.1672 17.4424 16.5853C17.5581 16.0033 17.4987 15.4001 17.2716 14.8519C17.0446 14.3038 16.6601 13.8352 16.1667 13.5056C15.6734 13.1759 15.0933 13 14.5 13ZM16.174 5L14.746 10H6.246L4.746 5H16.174ZM5.5 16C5.5 16.1978 5.44135 16.3911 5.33147 16.5556C5.22159 16.72 5.06541 16.8482 4.88268 16.9239C4.69996 16.9996 4.49889 17.0194 4.30491 16.9808C4.11093 16.9422 3.93275 16.847 3.79289 16.7071C3.65304 16.5673 3.5578 16.3891 3.51921 16.1951C3.48063 16.0011 3.50043 15.8 3.57612 15.6173C3.65181 15.4346 3.77998 15.2784 3.94443 15.1685C4.10888 15.0586 4.30222 15 4.5 15C4.76522 15 5.01957 15.1054 5.20711 15.2929C5.39464 15.4804 5.5 15.7348 5.5 16ZM14.5 17C14.3022 17 14.1089 16.9414 13.9444 16.8315C13.78 16.7216 13.6518 16.5654 13.5761 16.3827C13.5004 16.2 13.4806 15.9989 13.5192 15.8049C13.5578 15.6109 13.653 15.4327 13.7929 15.2929C13.9327 15.153 14.1109 15.0578 14.3049 15.0192C14.4989 14.9806 14.7 15.0004 14.8827 15.0761C15.0654 15.1518 15.2216 15.28 15.3315 15.4444C15.4414 15.6089 15.5 15.8022 15.5 16C15.5 16.2652 15.3946 16.5196 15.2071 16.7071C15.0196 16.8946 14.7652 17 14.5 17Z" fill="#B76102"/>
</svg>
